# xmcd
#
# Track frame offsets:
#	150
#	17719
#	29684
#	47139
#	59451
#	75538
#	92879
#	102989
#	119459
#	135811
#
# Disc length: 2039 seconds
#
# Revision: 0
# Processed by: cddbd v1.5.2PL0 Copyright (c) Steve Scherf et al.
# Submitted via: audiograbber 1.83.01
#
DISCID=7f07f50a
DTITLE=Ray Charles - Seven Spanish Angels and Other Hits
DYEAR=1900
DGENRE=Country
TTITLE0=Seven Spanish Angels (w. Willie Nelson)
TTITLE1=Two Old Cats Like Us (w. Hank Williams Jr.)
TTITLE2=Born to Love Me
TTITLE3=Rock and Roll Shoes (w. B.J. Thomas)
TTITLE4=Anybody With The Blues
TTITLE5=Do I Ever Cross Your Mind
TTITLE6=We Didn't See A Thing (w. George Jones)
TTITLE7=A Little Bit Of Heaven
TTITLE8=Let Your Love Flow
TTITLE9=Dixie Moon
EXTD=
EXTT0=
EXTT1=
EXTT2=
EXTT3=
EXTT4=
EXTT5=
EXTT6=
EXTT7=
EXTT8=
EXTT9=
PLAYORDER=
